PathFileType  4	(X/Y/Z) C:\Users\antoi\Documents\MyRepositories\mobilecap\ResultsAnalysis
DataRate	CameraRate	NumFrames	NumMarkers	Units	OrigDataRate	OrigDataStartFrame	OrigNumFrames
100.0	100.0	6	55	mm	100.0	232	265
Frame#	Time	r_knee			r_shank_antsup			r_ankle			r_calc			r_5meta			r_toe			L_knee			L_shank_antsup			L_ankle			L_calc			L_5meta			L_toe			r_mknee			r_mankle			L_mknee			L_mankle			r_sh2			r_sh3			r_sh4			L_sh2			L_sh3			r_thigh1			r_thigh2			r_thigh3			r_thigh4			r_thigh5			L_thigh1			L_thigh2			L_thigh3			L_thigh4			r.ASIS			r.PSIS			L.ASIS			L.PSIS			C7			R_Shoulder			L_Shoulder			R_Sternum			L_Sternum			R_humerus			R_elbow_med			R_elbow_lat			R_forearm			R_wrist_radius			R_wrist_ulna			L_humerus			L_elbow_med			L_elbow_lat			L_forearm			L_wrist_radius			L_wrist_ulna			R_HJC			L_HJC			R_HJC_reg			L_HJC_reg			
		X1	Y1	Z1	X2	Y2	Z2	X3	Y3	Z3	X4	Y4	Z4	X5	Y5	Z5	X6	Y6	Z6	X7	Y7	Z7	X8	Y8	Z8	X9	Y9	Z9	X10	Y10	Z10	X11	Y11	Z11	X12	Y12	Z12	X13	Y13	Z13	X14	Y14	Z14	X15	Y15	Z15	X16	Y16	Z16	X17	Y17	Z17	X18	Y18	Z18	X19	Y19	Z19	X20	Y20	Z20	X21	Y21	Z21	X22	Y22	Z22	X23	Y23	Z23	X24	Y24	Z24	X25	Y25	Z25	X26	Y26	Z26	X27	Y27	Z27	X28	Y28	Z28	X29	Y29	Z29	X30	Y30	Z30	X31	Y31	Z31	X32	Y32	Z32	X33	Y33	Z33	X34	Y34	Z34	X35	Y35	Z35	X36	Y36	Z36	X37	Y37	Z37	X38	Y38	Z38	X39	Y39	Z39	X40	Y40	Z40	X41	Y41	Z41	X42	Y42	Z42	X43	Y43	Z43	X44	Y44	Z44	X45	Y45	Z45	X46	Y46	Z46	X47	Y47	Z47	X48	Y48	Z48	X49	Y49	Z49	X50	Y50	Z50	X51	Y51	Z51	X52	Y52	Z52	X53	Y53	Z53	X54	Y54	Z54	X55	Y55	Z55	

232	2.31000000	-205.81148	501.53426	-391.86821	-173.14287	433.67435	-402.57193	-250.81497	98.66205	-366.12731	-320.91418	63.95962	-394.19368	-144.56031	45.89777	-335.48398	-102.23889	69.99930	-396.03019	-215.40746	497.66505	-731.92283	-192.82513	410.34235	-741.44336	-254.87251	101.19075	-740.58585	-320.54937	62.50054	-698.79303	-151.08537	42.89010	-788.13105	-110.21008	62.97498	-732.39718	-209.02239	486.35019	-512.79064	-239.81064	104.98819	-444.36489	-212.56883	487.41031	-608.76605	-224.89554	100.30986	-664.61446	-197.93069	326.30696	-365.70253	-248.01581	452.44104	-371.61699	-270.04064	344.32573	-355.76701	-279.79941	422.17199	-745.91387	-283.05171	300.69330	-762.07030	-131.19448	820.91970	-387.76939	-136.39037	708.96312	-389.41093	-193.20758	686.88387	-360.39652	-243.06324	824.31958	-367.81275	-246.15003	707.42469	-369.37293	-163.64881	765.71473	-765.25652	-166.45014	628.14407	-747.72151	-276.06811	767.03590	-735.39143	-272.08093	626.78557	-726.12195	-112.65097	978.51186	-439.01595	-308.54374	1013.96679	-524.01598	-105.02148	958.98072	-691.57567	-312.24869	1009.67150	-620.48140	-326.56313	1419.15259	-583.44553	-228.33878	1390.30813	-402.86885	-254.09077	1390.84667	-763.12390	-187.71929	1401.57031	-562.61590	-183.82911	1404.69260	-603.20258	-207.54942	1248.31875	-349.88568	-265.49779	1042.73525	-403.84107	-241.55064	1052.96675	-337.78511	-160.43543	935.96037	-334.33432	-116.77190	806.40426	-342.45139	-139.36451	797.25742	-316.23527	-224.86019	1272.13653	-816.07492	-263.93942	1041.72905	-742.48701	-235.46809	1055.81198	-814.16568	-163.50975	965.92850	-799.46564	-117.47887	812.87131	-791.22333	-139.32331	806.03843	-814.31587	-191.00425	897.78659	-460.40145	-188.19435	886.61169	-666.55056	-180.83680	899.65741	-468.36572	-187.24975	892.22229	-635.34005	
233	2.32000000	-205.80766	501.56282	-391.85004	-173.14777	433.69499	-402.57412	-250.75303	98.65355	-366.06716	-320.86542	64.01557	-394.20090	-144.54899	45.87177	-335.47704	-102.24737	69.98495	-396.03408	-215.38438	497.67114	-731.93851	-192.82310	410.34037	-741.44119	-254.87844	101.18761	-740.58110	-320.55415	62.52490	-698.82261	-151.08699	42.88643	-788.13178	-110.20925	62.96911	-732.39726	-209.02466	486.34990	-512.79124	-239.81268	104.98743	-444.37272	-212.56956	487.41340	-608.76690	-224.91596	100.32692	-664.62586	-197.80867	326.36859	-365.70842	-248.01694	452.43107	-371.60604	-269.80745	343.99655	-355.63673	-279.76086	422.19049	-745.94659	-283.03484	300.69341	-762.08216	-131.16305	820.92560	-387.77353	-136.38254	708.96460	-389.41304	-193.15423	686.86794	-360.41865	-243.01877	824.36708	-367.75842	-246.18402	707.38640	-369.39064	-163.54033	765.69241	-765.27673	-166.41180	628.12480	-747.74207	-276.05250	767.03028	-735.39659	-272.03265	626.82047	-726.15511	-112.66300	978.49610	-439.03797	-308.54899	1013.96399	-524.06031	-104.96908	958.96503	-691.59766	-312.21685	1009.66245	-620.48739	-326.50526	1419.18076	-583.41931	-228.31025	1390.29262	-402.85166	-254.00990	1390.87376	-763.07845	-187.65393	1401.58506	-562.58810	-183.78760	1404.70652	-603.18954	-207.55008	1248.29151	-349.91497	-265.47061	1042.84126	-403.86532	-241.51917	1053.00774	-337.77871	-160.43675	935.95701	-334.35568	-116.75536	806.41536	-342.42754	-139.32940	797.25451	-316.23962	-224.77518	1272.15461	-816.05259	-263.88334	1041.73326	-742.50678	-235.37417	1055.82470	-814.17872	-163.40798	965.97904	-799.55052	-117.42055	812.85689	-791.25263	-139.21028	806.03963	-814.25618	-191.00527	897.77311	-460.42426	-188.16717	886.60212	-666.57318	-180.85898	899.65473	-468.40797	-187.21048	892.20535	-635.38500	
234	2.33000000	-205.76286	501.58897	-391.76514	-173.15704	433.68894	-402.55717	-250.72871	98.68820	-366.05589	-320.81621	64.04174	-394.16846	-144.55409	45.88067	-335.47629	-102.25620	69.96799	-396.03847	-215.35349	497.68503	-731.96611	-192.82023	410.33410	-741.44413	-254.87941	101.17923	-740.58195	-320.56857	62.51091	-698.82841	-151.08685	42.87463	-788.13637	-110.21155	62.96086	-732.40986	-209.01990	486.35437	-512.79188	-239.81363	104.97935	-444.37856	-212.56102	487.42116	-608.76235	-224.94905	100.31527	-664.63956	-197.76956	326.36543	-365.70199	-248.06400	452.45448	-371.59700	-269.46619	343.59020	-355.42430	-279.77142	422.15591	-745.93706	-283.09043	300.62502	-762.02443	-131.10318	820.93583	-387.77750	-136.37490	708.95981	-389.41903	-193.16118	686.84813	-360.45099	-243.01811	824.35378	-367.75060	-246.19022	707.34898	-369.42385	-163.50703	765.68227	-765.25245	-166.37521	628.11169	-747.75366	-276.03956	767.00794	-735.39606	-272.00453	626.79704	-726.19545	-112.64653	978.51969	-439.02703	-308.56300	1013.89303	-524.04189	-104.93276	958.94664	-691.61232	-312.20811	1009.68268	-620.52245	-326.43215	1419.20946	-583.39791	-228.28650	1390.27106	-402.84143	-253.93339	1390.86918	-763.04828	-187.59144	1401.63798	-562.59888	-183.72466	1404.68823	-603.17221	-207.52818	1248.27999	-349.92894	-265.36881	1042.83311	-403.86394	-241.53756	1052.98015	-337.77890	-160.42057	935.96759	-334.34095	-116.77129	806.38341	-342.44346	-139.31380	797.26648	-316.25012	-224.67292	1272.17898	-816.01969	-263.82610	1041.73596	-742.52486	-235.28239	1055.82768	-814.18901	-163.32928	966.00963	-799.59441	-117.33904	812.87716	-791.26081	-139.10172	806.03764	-814.19870	-190.98490	897.76586	-460.42730	-188.13374	886.59298	-666.57593	-180.79512	899.48548	-468.48431	-187.10481	892.19688	-635.48944	
235	2.34000000	-205.72811	501.58709	-391.73199	-173.14709	433.65715	-402.54664	-250.74820	98.72493	-366.08929	-320.84777	63.98616	-394.15353	-144.56926	45.88833	-335.48134	-102.25906	69.94429	-396.03337	-215.32842	497.69580	-731.99378	-192.81171	410.32488	-741.45173	-254.87530	101.16445	-740.59107	-320.56122	62.47470	-698.80175	-151.08708	42.86255	-788.14149	-110.21467	62.94398	-732.42659	-209.00875	486.35563	-512.78729	-239.81679	104.95955	-444.37544	-212.54753	487.42726	-608.75802	-224.93762	100.26411	-664.61212	-197.86008	326.31334	-365.69267	-248.09644	452.47011	-371.59671	-269.48324	343.58782	-355.42739	-279.80058	422.11376	-745.90544	-283.02423	300.68585	-762.06756	-131.07935	820.95083	-387.77871	-136.36992	708.95104	-389.42107	-193.18709	686.86069	-360.42985	-243.02203	824.30261	-367.79945	-246.13992	707.37944	-369.44703	-163.53997	765.67562	-765.25836	-166.34860	628.10688	-747.74873	-276.02144	766.98510	-735.39856	-272.00142	626.75056	-726.17474	-112.59217	978.52532	-438.97163	-308.53624	1013.85014	-524.00829	-104.91410	958.93075	-691.61472	-312.18002	1009.67571	-620.52200	-326.35154	1419.20021	-583.38639	-228.25322	1390.27974	-402.83846	-253.86501	1390.86186	-763.03858	-187.51605	1401.68819	-562.57880	-183.65315	1404.64257	-603.14035	-207.45773	1248.31740	-349.90990	-265.31707	1042.72394	-403.83425	-241.55200	1052.92884	-337.77834	-160.38953	935.96941	-334.30957	-116.79671	806.34126	-342.46997	-139.33648	797.25196	-316.24423	-224.58576	1272.20435	-815.98522	-263.77240	1041.73473	-742.54532	-235.19394	1055.83711	-814.19946	-163.26845	966.02405	-799.56819	-117.25585	812.89937	-791.29878	-139.01301	806.03881	-814.19472	-190.93977	897.75593	-460.40344	-188.09627	886.57691	-666.55185	-180.73372	899.39405	-468.46603	-187.04044	892.16876	-635.51280	
236	2.35000000	-205.72705	501.58778	-391.77863	-173.12913	433.64245	-402.55445	-250.77590	98.68901	-366.09962	-320.88208	63.91472	-394.16310	-144.56554	45.88292	-335.48113	-102.25474	69.92100	-396.02671	-215.31806	497.67726	-731.99846	-192.80290	410.31129	-741.45682	-254.87102	101.15338	-740.59683	-320.53199	62.47791	-698.81108	-151.09249	42.84977	-788.14533	-110.21909	62.92149	-732.44078	-209.00132	486.35550	-512.78151	-239.81971	104.92964	-444.36812	-212.54308	487.42565	-608.75529	-224.90070	100.25620	-664.56954	-197.90025	326.33729	-365.70632	-248.07145	452.43976	-371.59695	-269.62861	343.71097	-355.54928	-279.80306	422.10341	-745.90244	-282.92709	300.75810	-762.14840	-131.07925	820.95139	-387.77672	-136.36942	708.94873	-389.41620	-193.17478	686.88576	-360.38533	-242.98859	824.30078	-367.81843	-246.09183	707.41845	-369.44532	-163.52721	765.65314	-765.31652	-166.33198	628.09411	-747.74323	-275.99879	766.97932	-735.40762	-271.96983	626.75154	-726.12781	-112.55419	978.49230	-438.92872	-308.50469	1013.85643	-524.01365	-104.89378	958.91278	-691.61079	-312.16237	1009.66188	-620.53802	-326.30835	1419.18190	-583.43885	-228.20362	1390.30404	-402.82497	-253.80089	1390.87004	-763.03571	-187.41711	1401.68710	-562.47881	-183.54572	1404.63838	-603.15655	-207.41609	1248.32585	-349.89929	-265.31048	1042.65562	-403.81589	-241.52298	1052.92541	-337.77104	-160.37305	935.95955	-334.30329	-116.80355	806.32989	-342.48847	-139.35048	797.23587	-316.22927	-224.51879	1272.22380	-815.95325	-263.71340	1041.72360	-742.56270	-235.10862	1055.84625	-814.20536	-163.20536	966.03312	-799.53932	-117.19675	812.92611	-791.34732	-138.93963	806.05391	-814.22432	-190.92826	897.73819	-460.39708	-188.07486	886.56112	-666.54546	-180.71761	899.40109	-468.40581	-187.04838	892.14095	-635.47482	
237	2.36000000	-205.73145	501.59612	-391.80667	-173.10878	433.66017	-402.57590	-250.77791	98.65428	-366.07720	-320.86733	63.90198	-394.18501	-144.54046	45.89315	-335.46914	-102.24502	69.91013	-396.03371	-215.30796	497.64627	-731.99540	-192.80207	410.29054	-741.46131	-254.86731	101.14735	-740.59673	-320.51524	62.50559	-698.86347	-151.09956	42.83148	-788.15078	-110.22487	62.90795	-732.45650	-209.01122	486.36297	-512.79513	-239.82015	104.90001	-444.36785	-212.55137	487.41950	-608.75329	-224.89600	100.30286	-664.57156	-197.83492	326.39749	-365.72126	-248.03255	452.38807	-371.58749	-269.61793	343.67470	-355.54318	-279.79024	422.09915	-745.91645	-283.03739	300.52452	-762.14055	-131.04361	820.93784	-387.77167	-136.36444	708.95067	-389.41544	-193.14873	686.89777	-360.38374	-242.93767	824.34637	-367.76550	-246.08721	707.39739	-369.43487	-163.47978	765.62434	-765.36580	-166.32565	628.07355	-747.74741	-275.97631	766.98476	-735.41519	-271.91655	626.77508	-726.11195	-112.56469	978.47489	-438.94411	-308.50149	1013.85824	-524.04194	-104.87209	958.89838	-691.61177	-312.16330	1009.64947	-620.57844	-326.31005	1419.19082	-583.52758	-228.13853	1390.32073	-402.79985	-253.73285	1390.87940	-763.03985	-187.33533	1401.67524	-562.39111	-183.34840	1404.71367	-603.29742	-207.42276	1248.27405	-349.91637	-265.28465	1042.68604	-403.82242	-241.49378	1052.95133	-337.76246	-160.38039	935.95649	-334.32017	-116.80888	806.32625	-342.50587	-139.33448	797.24915	-316.23256	-224.44930	1272.23670	-815.92794	-263.64459	1041.71511	-742.57802	-235.02782	1055.84858	-814.20629	-163.13693	966.03239	-799.52554	-117.15435	812.95758	-791.37734	-138.86104	806.07666	-814.21105	-190.94187	897.72806	-460.41503	-188.06446	886.54840	-666.56293	-180.72245	899.41649	-468.40626	-187.05915	892.13302	-635.46492	
